# xmcd
#
# Track frame offsets:
#	150
#	3680
#	5974
#	8538
#	12332
#	13184
#	15695
#	16983
#	20076
#	20947
#	25025
#	30873
#	34958
#	39455
#	44526
#	50338
#	53220
#	55984
#	62329
#	67960
#	71148
#	74842
#	79435
#	88528
#	89814
#	93493
#	96225
#	101653
#	104341
#	107863
#	113906
#	120895
#	125623
#	128298
#	131496
#	137340
#	139104
#	144545
#
# Disc length: 2359 seconds
#
# Revision: 1
# Processed by: cddbd v1.5.1PL0 Copyright (c) Steve Scherf et al.
# Submitted via: CDex 1.50Beta5
#
DISCID=10093526
DTITLE=Jellyroll Rockheads - Wake Up, Music
DYEAR=1900
DGENRE=Alternative
TTITLE0=Ganja Boy
TTITLE1=Song For Speedcore Lovers
TTITLE2=Go! "No Reason"
TTITLE3=Isolated
TTITLE4=Shoot A Bomb Into Dance Floor Α
TTITLE5=I Wanna Be High
TTITLE6=High Pressure
TTITLE7=Kenji Mind Is Green Mind
TTITLE8=Shoot A Bomb Into Dance Floor Β
TTITLE9=Kome-Nist
TTITLE10=Ride On Super Sound
TTITLE11=Road To Ruin
TTITLE12=Only Silence
TTITLE13=Intense Inside
TTITLE14=I'm At My Wit's End
TTITLE15=Worshit Of Youth
TTITLE16=Wake Up, Music
TTITLE17=Fade Out
TTITLE18=Flowers For Nothing
TTITLE19=Good Time's Rollin'
TTITLE20=Try To Join...
TTITLE21=No Skate No Thrash
TTITLE22=Dull Face, Bright Eyes
TTITLE23=High Pressure
TTITLE24=Isolated
TTITLE25=Go! "No Reason"
TTITLE26=He Told Like This
TTITLE27=Who Loves The Sun
TTITLE28=Road To Ruin
TTITLE29=I'm At My Wit's End
TTITLE30=Fade Out
TTITLE31=Ganja Boy
TTITLE32=Song For Speedcore Lovers
TTITLE33=Wake Up, Music
TTITLE34=No Skate No Thrash
TTITLE35=Snob
TTITLE36=Intense Inside
TTITLE37=Dust Youth Only Need It
EXTD=
EXTT0=
EXTT1=
EXTT2=
EXTT3=
EXTT4=
EXTT5=
EXTT6=
EXTT7=
EXTT8=
EXTT9=
EXTT10=
EXTT11=
EXTT12=
EXTT13=
EXTT14=
EXTT15=
EXTT16=
EXTT17=
EXTT18=
EXTT19=
EXTT20=
EXTT21=
EXTT22=
EXTT23=
EXTT24=
EXTT25=
EXTT26=
EXTT27=
EXTT28=
EXTT29=
EXTT30=
EXTT31=
EXTT32=
EXTT33=
EXTT34=
EXTT35=
EXTT36=
EXTT37=
PLAYORDER=
